<?xml version="1.0" encoding="utf-8"?>
<!-- Generator: Adobe Illustrator 21.1.0, SVG Export Plug-In . SVG Version: 6.00 Build 0)  -->
<svg version="1.1" xmlns="http://www.w3.org/2000/svg" xmlns:xlink="http://www.w3.org/1999/xlink"
	 width="106" height="28" viewBox="0 0 106 28">
<style type="text/css">
	.st0{fill:#4489FF;}
</style>
<g id="Слой_1">
	<g>
		<path class="st0" d="M15.1,15.7l0.2-0.5c1.8-4.2,3.2-6.9,4-8.1c0.1-0.2,0.2-0.3,0.3-0.4c0.1-0.1,0.2-0.2,0.3-0.3s0.3-0.2,0.5-0.2
			c0.6-0.2,1.3-0.4,2.2-0.4c0.5,0,0.8,0,0.9,0.1s0.2,0.3,0.2,0.5c0,0.2,0,0.4,0,0.7c-0.1,1.4-0.1,2.4-0.1,3c0,1.5,0.1,2.9,0.3,4.3
			c0.1,0.8,0.3,1.5,0.6,2.3c0.3,0.7,0.5,1.2,0.8,1.6c0.3,0.4,0.5,0.7,0.8,0.9c0.3,0.3,0.4,0.4,0.4,0.6c0,0.2-0.2,0.6-0.6,1
			c-0.7,0.7-1.4,1-2.1,1c-1,0-1.9-0.4-2.7-1.3c-0.4-0.4-0.7-0.9-1-1.4s-0.4-1.1-0.5-1.8s-0.2-1.7-0.2-2.8c-0.1-1.2-0.1-1.9-0.1-2.1
			h0c-0.5,0.9-0.9,1.7-1.2,2.4c-0.3,0.6-0.6,1.2-0.8,1.6c-0.2,0.4-0.5,0.9-0.7,1.5c-0.9,1.8-1.5,3-1.7,3.3c0,0,0,0.1-0.1,0.1
			s-0.1,0.1-0.1,0.1c-0.1,0.1-0.3,0.2-0.5,0.3c-0.2,0.1-0.3,0.1-0.4,0.1c-0.3,0-0.7-0.2-1.1-0.6c-0.4-0.4-0.7-0.9-1-1.6
			c-0.3-0.7-0.6-1.4-0.7-2.1c-0.2-0.7-0.4-1.6-0.5-2.5c-0.1-1-0.3-2.2-0.4-3.6h0c-0.2,0.5-0.4,0.9-0.5,1.2c-0.1,0.3-0.3,0.7-0.5,1.2
			c-0.2,0.5-0.4,0.9-0.4,0.9c-0.3,0.7-0.7,1.4-1,2.2c-0.4,0.7-0.6,1.3-0.9,1.7c-0.2,0.4-0.5,0.8-0.7,1.2c-0.1,0.2-0.3,0.4-0.6,0.8
			c-0.5,0.4-1,0.8-1.5,1C3,21.7,2.5,21.8,2,21.8c-0.2,0-0.4,0-0.5-0.1c-0.1-0.1-0.2-0.2-0.2-0.4c0-0.1,0.1-0.3,0.3-0.5
			c0.1-0.1,0.4-0.5,0.8-1.1l0.7-1.1c0.4-0.6,1.1-1.7,1.9-3.4l0.6-1.1c1.3-2.5,2.2-4.2,2.7-5.2c0.5-0.9,0.7-1.5,0.7-1.6
			c0-0.2-0.1-0.3-0.4-0.6C8.4,6.8,8.3,6.7,8.3,6.6c0-0.2,0.2-0.3,0.7-0.5c0.5-0.2,0.9-0.2,1.5-0.2c1.1,0,1.8,0.2,2.3,0.7
			c0.3,0.3,0.5,0.9,0.8,1.8c0.2,0.9,0.5,2.1,0.7,3.8c0,0.1,0,0.2,0,0.2c0,0.1,0,0.1,0,0.1c0,0,0,0.1,0,0.2c0,0.2,0.1,0.4,0.1,0.4
			c0.2,1,0.3,1.7,0.4,1.9C14.9,15.3,15,15.5,15.1,15.7z"/>
		<path class="st0" d="M35.4,18.5L35.4,18.5L35.4,18.5c-0.8,0.9-1.4,1.5-2,2.1s-1.2,1-1.7,1.2s-1,0.4-1.4,0.4
			c-0.9,0-1.6-0.3-2.2-0.9s-0.9-1.3-0.9-2.2c0-0.6,0.1-1.2,0.4-2s0.7-1.5,1.2-2.2c0.8-1.2,1.9-2.2,3.1-3c1.3-0.9,2.5-1.3,3.7-1.3
			c1,0,1.8,0.2,2.5,0.6s1,0.9,1,1.6c0,0.5-0.2,0.9-0.5,1.5c0.4,0,0.7,0,0.8,0.1s0.2,0.3,0.2,0.6c0,0,0,0.1-0.1,0.5
			c0,0.8-0.1,1.5-0.1,2.2c0,0.4,0,0.6,0,0.8s0,0.4,0,0.6s0,0.4,0.1,0.6c0.1,0.4,0.2,0.7,0.3,1.1c-0.5,0.5-0.9,0.8-1.3,1
			S37.6,22,37.2,22c-1.2,0-1.8-1-1.8-3C35.4,18.8,35.4,18.6,35.4,18.5z M36.1,15.8l-0.2,0.1c-0.6,0.2-1,0.2-1.2,0.2
			c-0.3,0-0.5-0.1-0.5-0.2c0-0.1,0.1-0.2,0.2-0.4c0.4-0.7,0.7-1.3,0.7-1.9c0-0.3-0.1-0.6-0.2-0.9s-0.2-0.4-0.4-0.4
			c-0.1,0-0.3,0.1-0.6,0.4c-0.7,0.8-1.3,1.6-1.7,2.4s-0.6,1.6-0.6,2.2c0,0.4,0.1,0.8,0.3,1.1s0.4,0.4,0.7,0.4c0.2,0,0.7-0.2,1.3-0.7
			s1.3-1.1,2.1-1.9L36.1,15.8L36.1,15.8z"/>
		<path class="st0" d="M51.8,23.9c-1.1,1.4-1.9,2.1-2.5,2.1c-0.4,0-0.8-0.2-1.3-0.5s-0.9-0.8-1.3-1.3s-0.7-1.1-0.9-1.8
			s-0.4-1.3-0.4-1.8c0-0.3,0.1-0.5,0.2-0.7c0,0,0.2-0.1,0.3-0.2c1.3-0.8,2-1.6,2-2.3c0-0.4-0.2-0.6-0.5-0.6c-0.4,0-0.8,0.3-1.4,1
			s-1.1,1.5-1.5,2.5c-0.3,0.6-0.5,1-0.7,1.2c-0.2,0.2-0.5,0.2-0.8,0.2c-0.4,0-0.8-0.1-1.1-0.3s-0.5-0.6-0.7-1s-0.3-0.9-0.3-1.5
			c0-0.8,0.1-1.8,0.3-2.8s0.5-2,0.9-3s0.8-2,1.4-3s1.1-1.8,1.6-2.5c1.1-1.4,2.2-2.1,3.3-2.1c0.5,0,1,0.1,1.4,0.4s0.7,0.6,1,1
			s0.3,1,0.3,1.6c0,0.7-0.2,1.5-0.5,2.2s-0.8,1.3-1.4,1.8s-1.2,0.7-1.7,0.7c-0.3,0-0.4-0.1-0.4-0.3c0-0.1,0.1-0.3,0.2-0.6
			c0.7-1.4,1-2.9,1-4.6c0-0.4-0.1-0.7-0.2-0.7c-0.1,0-0.2,0.1-0.4,0.3S47.4,8,47.2,8.3c-0.9,1.9-1.5,4.2-1.9,6.7
			c0,0.1,0,0.3-0.1,0.5s-0.1,0.5-0.1,0.7l0,0c0.3-0.5,0.6-0.8,0.8-1s0.5-0.5,0.8-0.7c1.1-0.8,2-1.2,3-1.2c0.5,0,0.9,0.1,1.2,0.4
			s0.5,0.6,0.5,1.1c0,1.1-0.3,2.1-1,3.3c-0.2,0.3-0.4,0.7-0.6,1c-0.2,0.3-0.6,0.7-1.1,1.2c0.3,0.5,0.6,1,1,1.4
			c0.3,0.4,0.7,0.8,1.2,1.3C51.3,23.3,51.6,23.6,51.8,23.9z"/>
		<path class="st0" d="M54.3,22c-0.4,0-0.7-0.2-1-0.5c-0.3-0.3-0.5-0.7-0.6-1c-0.1-0.4-0.2-0.8-0.2-1.4c0-1.3,0.2-2.7,0.7-4.4
			s1-2.8,1.6-3.5c0.2-0.3,0.6-0.5,1-0.5c0.5,0,0.8,0.2,1.1,0.6s0.4,1,0.4,1.6c0,1-0.1,2.2-0.4,3.5c-0.3,1.3-0.7,2.7-1.2,4.2
			c-0.2,0.6-0.5,1-0.7,1.2C54.8,21.9,54.6,22,54.3,22L54.3,22z"/>
		<path class="st0" d="M71.4,17.6l-3.2,3.3c-0.4,0.4-0.7,0.7-1,0.8S66.6,22,66.3,22c-0.5,0-0.9-0.2-1.2-0.5s-0.5-0.8-0.5-1.3
			c0-0.3,0-0.7,0.1-1s0.3-0.9,0.6-1.7c0.1-0.2,0.1-0.3,0.2-0.4s0.1-0.2,0.1-0.3l0,0c-0.8,0.8-1.5,1.6-2.2,2.5
			c-0.6,0.7-1.1,1.3-1.5,1.6s-0.7,0.6-1,0.8s-0.5,0.3-0.8,0.3c-0.5,0-0.9-0.2-1.2-0.6s-0.4-0.9-0.4-1.6c0-0.9,0.4-2.3,1.1-4.2
			c0.7-1.7,1.2-2.9,1.6-3.5c0.5-0.8,1.2-1.2,1.9-1.2c0.4,0,0.8,0.1,1,0.3s0.4,0.5,0.4,0.8c0,0.6-0.2,1.5-0.7,2.7
			c-0.2,0.4-0.3,0.9-0.5,1.5l0,0c0.3-0.3,0.8-0.9,1.4-1.7c1.1-1.4,1.9-2.3,2.5-2.8c0.7-0.7,1.4-1,2-1c0.3,0,0.5,0.1,0.8,0.3
			c0.2,0.2,0.4,0.4,0.6,0.7s0.2,0.6,0.2,0.9c0,0.3-0.2,1.2-0.7,2.6c-0.1,0.3-0.2,0.5-0.2,0.7c-0.1,0.2-0.1,0.3-0.2,0.4l0.1,0
			c0.1-0.1,0.2-0.2,0.3-0.3c0.1-0.1,0.2-0.2,0.3-0.3c0.1-0.1,0.2-0.2,0.3-0.3c0.2-0.2,0.7-0.7,1.6-1.6c0.6-0.6,1-1.1,1.3-1.3
			s0.6-0.3,0.9-0.3c0.5,0,0.9,0.2,1.1,0.5s0.4,0.8,0.4,1.5c0,0.4-0.1,1-0.2,1.9c-0.1,1-0.2,1.7-0.2,2.3s-0.1,0.9-0.1,1.2
			c0,0.2,0,0.4,0,0.6s0.1,0.5,0.1,0.8s0.1,0.6,0.2,1c0.1,0.4,0.2,0.8,0.2,1c-0.1,0.3-0.3,0.5-0.6,0.7S74.7,24,74.3,24
			c-0.6,0-1.2-0.3-1.8-0.9c-0.3-0.3-0.4-0.5-0.6-0.8s-0.2-0.6-0.3-1s-0.1-0.9-0.1-1.5c0-0.4,0-1.2,0.1-2.5l0,0L71.4,17.6z"/>
		<path class="st0" d="M85.1,18.5L85.1,18.5L85.1,18.5c-0.8,0.9-1.4,1.5-2,2.1s-1.2,1-1.7,1.2s-1,0.4-1.4,0.4
			c-0.9,0-1.6-0.3-2.2-0.9S77,20,77,19.1c0-0.6,0.1-1.2,0.4-2s0.7-1.5,1.2-2.2c0.8-1.2,1.9-2.2,3.1-3c1.3-0.9,2.5-1.3,3.7-1.3
			c1,0,1.8,0.2,2.5,0.6s1,0.9,1,1.6c0,0.5-0.2,0.9-0.5,1.5c0.4,0,0.7,0,0.8,0.1s0.2,0.3,0.2,0.6c0,0,0,0.1-0.1,0.5
			c0,0.8-0.1,1.5-0.1,2.2c0,0.4,0,0.6,0,0.8s0,0.4,0,0.6s0,0.4,0.1,0.6c0.1,0.4,0.2,0.7,0.3,1.1c-0.5,0.5-0.9,0.8-1.3,1
			S87.4,22,86.9,22c-1.2,0-1.8-1-1.8-3C85.1,18.8,85.1,18.6,85.1,18.5z M85.8,15.8l-0.2,0.1c-0.6,0.2-1,0.2-1.2,0.2
			c-0.3,0-0.5-0.1-0.5-0.2c0-0.1,0.1-0.2,0.2-0.4c0.4-0.7,0.7-1.3,0.7-1.9c0-0.3-0.1-0.6-0.2-0.9s-0.2-0.4-0.4-0.4
			c-0.1,0-0.3,0.1-0.6,0.4c-0.7,0.8-1.3,1.6-1.7,2.4s-0.6,1.6-0.6,2.2c0,0.4,0.1,0.8,0.3,1.1s0.4,0.4,0.7,0.4c0.2,0,0.7-0.2,1.3-0.7
			s1.3-1.1,2.1-1.9L85.8,15.8L85.8,15.8z"/>
	</g>
</g>
<g id="Слой_2">
	<g>
		<g>
			<path class="st0" d="M90.5,11.9c0.2-0.5,0.3-0.9,0.5-1.4c0-0.1,0.1-0.2,0.1-0.3c0-0.1,0.1-0.1,0.1-0.2c0.2-0.7,0.5-1.4,0.7-2.1
				c0-0.1,0.1-0.2,0.1-0.3c0.1-0.1,0.1-0.2,0.2-0.3c0.1-0.1,0.2-0.2,0.3-0.3c0.2-0.1,0.4-0.2,0.5-0.2c0.7-0.2,1.4-0.6,2.1-0.8
				c0.3-0.1,1.1-0.3,1.6-0.3c0.7,0,0.9,0.2,1,0.1C97.9,5.8,97,5.1,96.9,4c-0.1-1,0.4-2.2,1.4-2.5c0.5-0.1,1.2-0.1,1.5,0.3
				c0.5,0.5,0.3,1.3,0.6,1.4c0.2,0.1,0.4-0.4,0.8-0.7c0.7-0.5,1.8-0.5,2.3,0c0.7,0.7,0.2,2.6-0.8,3.5c-0.8,0.7-2.1,0.9-2.1,1.1
				c0,0.1,0.4,0.3,0.7,0.5c0.1,0.1,0.1,0.1,0.1,0.1c0.4,0.4,0.4,0.8,0.5,0.8c0.1,0-0.1-0.7,0.2-0.9c0.1-0.1,0.4-0.1,0.5,0
				c0.1,0.1,0.2,0.4,0,0.6c0,0,0.1-0.1,0.2-0.1c0.2,0,0.3,0.1,0.3,0.3c0,0.1-0.1,0.3-0.1,0.3c-0.3,0.3-0.9-0.1-1,0
				c0,0.1,0.1,0.2,0.6,0.7c0.2,0.2,0.3,0.4,0.6,0.8c0.1,0.1,0.1,0.2,0.2,0.4c0,0.1,0.1,0.2,0.1,0.2c0.1,0.2,0.1,0.4,0.1,0.7
				c0,0.1,0,0.2,0,0.3c0,0,0,0.1,0,0.1c-0.2,0.6-0.4,1.2-0.7,1.9c0,0.1-0.1,0.1-0.1,0.2c0,0.1,0,0.1-0.1,0.2c0,0,0,0.1-0.1,0.1
				c0,0.1,0,0.1-0.1,0.2c0,0.1-0.1,0.1-0.1,0.2c0,0,0,0,0,0.1c-0.3,0.9-0.6,1.7-0.9,2.6c0,0.1-0.1,0.3-0.2,0.4
				c-0.1,0.1-0.2,0.3-0.4,0.4c-0.1,0.1-0.3,0.2-0.5,0.2c-0.3,0.1-0.5,0.2-0.8,0.2c-0.1,0-0.3,0-0.5,0.1c-0.2,0-0.4,0-0.6,0
				c-0.3,0-0.5,0-0.8,0c-0.1,0-0.2,0-0.3,0c-0.1,0-0.2,0-0.3,0c-0.1,0-0.2,0-0.3,0c-0.1,0-0.2,0-0.2,0c0,0-0.1,0-0.1,0
				c-0.1,0-0.1,0-0.2,0c-0.1,0-0.1,0-0.2,0c0,0-0.1,0-0.1,0c0,0,0,0-0.1,0c-0.1,0-0.3-0.1-0.4-0.1c-0.1,0-0.2,0-0.2-0.1
				c-0.3-0.1-0.6-0.2-0.9-0.3c-0.1,0-0.2-0.1-0.4-0.1c-0.1,0-0.2-0.1-0.3-0.1c-0.1,0-0.2-0.1-0.3-0.1c0,0-0.1,0-0.1,0
				c-0.1,0-0.1-0.1-0.2-0.1c-0.1,0-0.1-0.1-0.2-0.1c-0.1,0-0.1-0.1-0.2-0.1c-0.1,0-0.1-0.1-0.2-0.1c-0.1,0-0.1-0.1-0.2-0.1
				c-0.1,0-0.1-0.1-0.2-0.1c0,0-0.1-0.1-0.1-0.1c-0.1-0.1-0.2-0.1-0.3-0.2c-0.1-0.1-0.2-0.1-0.2-0.2c-0.2-0.1-0.3-0.3-0.5-0.4
				c-0.1-0.1-0.2-0.2-0.3-0.3c-0.2-0.2-0.3-0.3-0.4-0.5c-0.1-0.1-0.2-0.2-0.2-0.4c-0.1-0.1-0.1-0.2-0.1-0.3C90,14.2,90,14,90,13.7
				c0-0.2,0-0.3,0.1-0.4C90.2,12.8,90.4,12.2,90.5,11.9z M99.6,14.3c0-0.1-0.2-0.1-0.5-0.2c-0.4-0.1-0.9-0.2-1.3-0.3
				c-1.3-0.2-1.4-0.4-1.6-0.2c-0.3,0.2-0.1,0.4-0.5,1c-0.3,0.4-0.6,0.6-0.8,0.7c0,0,0,0,0,0c-0.4,0.1-0.9,0-1.2-0.4
				c-0.2-0.3-0.1-0.6-0.1-1.1c0.1-0.8,0.4-1.3,0.4-1.4c0,0-0.2,0.4-0.5,0.6c-0.1,0-0.5,0.3-0.9,0.2c-0.3-0.1-0.4-0.5-0.4-0.6
				c-0.2-0.7,0.4-1.6,0.4-2c0-0.2-0.1-0.4-0.1-0.4c0-0.1-0.1-0.1-0.1-0.2C92.1,10,92,9.9,92,9.9c-0.2,0-0.4,0.8-0.4,0.9
				c-0.2,0.7-0.2,1.3-0.2,1.5c0,0.3,0,0.8,0.2,1.5c0.4,1.5,1.6,2.2,1.8,2.4c1.8,1.1,4.1,0.5,5.3-0.5C99,15.3,99.8,14.6,99.6,14.3z
				 M102.3,11.8c-0.4,0.2-0.7,0.3-1.2,0.4c-0.1,0-0.5,0.1-1,0.1c-0.5,0-0.8,0-1.1-0.1c-0.3-0.1-0.8-0.1-1.3-0.3
				c-0.3-0.1-0.3-0.1-1.2-0.5c-1-0.4-1.1-0.4-1.4-0.6c-0.4-0.3-0.7-0.5-0.9-0.7c-0.5-0.5-0.9-0.8-1.1-1.5c-0.1-0.3-0.2-0.7-0.1-1.1
				c0.2-0.5-0.6,0.3-0.6,1c0.1,0.9,1.1,1,1,1.7c0,0.4-0.3,0.4-0.5,1.1c-0.1,0.3-0.1,0.8,0.1,0.9c0.1,0,0.3,0.1,0.4,0c0,0,0,0,0,0
				c0,0,0.3-0.2,0.4-0.7c0,0,0-0.1,0-0.1c0,0,0-0.1,0.1-0.1c0.1-0.1,0.2-0.2,0.4-0.2c0.2,0,0.3,0.1,0.4,0.2c0.1,0.1,0.1,0.2,0.1,0.4
				c0,0.1-0.1,0.2-0.1,0.3c-0.1,0.3-0.3,1-0.3,1.2c0,0,0,0,0,0c-0.1,0.3-0.1,0.8,0.1,0.9c0.2,0.1,0.5-0.1,0.6-0.2
				c0.2-0.2,0.3-0.4,0.3-0.7c0.1-0.2,0.1-0.4,0.2-0.6c0,0,0-0.1,0.1-0.1c0.1-0.1,0.2-0.3,0.5-0.3c0.2,0,0.3,0.1,0.8,0.3
				c0.2,0.1,0.5,0.2,0.7,0.2c0.1,0,0.3,0.1,0.4,0.1c0.1,0,0.2,0.1,0.4,0.1c0.1,0,0.2,0,0.3,0.1c0.1,0,0.3,0.1,0.4,0.1
				c0.1,0,0.2,0,0.2,0c0.2,0,0.3,0,0.5,0c0.2,0,0.4,0,0.6,0c0.4,0,0.9-0.1,1-0.1c0.1,0,0.2-0.1,0.4-0.2c0,0,0.2-0.1,0.4-0.3
				c0.2-0.1,0.4-0.3,0.5-0.6c0.1-0.3,0.1-0.7,0-0.8C102.7,11.4,102.4,11.7,102.3,11.8z M94.2,7.3c-0.1,0,0,0.6,0.2,1
				c0.1,0.2,0.2,0.4,0.3,0.5c0.3,0.4,0.6,0.6,0.8,0.8c0.4,0.3,0.8,0.5,0.9,0.5c0.2,0.1,0.4,0.2,0.8,0.3c0.4,0.1,0.7,0.2,1,0.3
				c0.8,0.1,1.7,0,1.7-0.1c0-0.1-0.8-0.1-2.2-0.5l0,0c-0.9-0.3-2.1-0.7-3-1.6C94.4,7.8,94.2,7.3,94.2,7.3z M99.6,8.9
				c0-0.1-0.8-0.1-2-0.6C96.8,8,96,7.7,95.5,7c-0.1-0.1-0.3-0.4-0.3-0.4c-0.1,0,0,0.3,0.1,0.5c0.1,0.1,0.2,0.3,0.7,0.7
				c0.3,0.2,0.5,0.3,0.8,0.5c0.1,0.1,0.5,0.3,0.9,0.4C98.7,9.1,99.6,9,99.6,8.9z M98.9,6.9c-0.1,0.1-0.4-0.1-1-0.2
				c-0.5-0.1-1.3-0.2-1.4,0c-0.1,0.2,0.7,0.8,1.5,1.1c1.2,0.5,2.5,0.5,2.6,0.3c0-0.2-0.5-0.5-0.9-0.7c-0.2-0.1-0.4-0.1-0.4-0.2
				c0-0.1,0-0.2,0.7-0.5c1.1-0.6,1.6-0.4,2.1-0.9c0.1-0.1,0.5-0.5,0.4-1c0-0.1-0.1-0.4-0.4-0.5c0,0-0.2-0.1-0.4-0.1
				c-0.4,0-0.7,0.2-0.9,0.4c-0.7,0.6-0.9,1-1.1,1c-0.2-0.1,0.2-0.8-0.3-1.4c-0.1-0.1-0.2-0.3-0.5-0.4c-0.4-0.1-0.6,0.2-0.7,0.3
				c0,0-0.3,0.3-0.3,0.7c0,0.3,0.2,0.5,0.5,1.1C98.7,6.1,99.1,6.8,98.9,6.9z"/>
		</g>
	</g>
	<path class="st0" d="M55.9,9.5c-0.7-1.4-0.7-1.3-0.8-1.6c0-0.1-0.1-1.1,0.6-1.5C56.3,6,57,6.1,57.5,6.4c0.3,0.2,0.4,0.4,0.5,0.5
		c0.2-0.1,0.6-0.2,1.1-0.2c0.4,0,1.1,0,1.5,0.4c0.4,0.6,0.1,1.4,0,1.5c-0.5,1-1.8,1.3-2.7,1.5c-0.1,0-1.4,0.3-1.5,0.1
		c0-0.1,0.1-0.2,0.9-0.8c0.7-0.5,0.9-0.7,0.9-0.9c0-0.1-0.1-0.2-0.3-0.3c-0.4-0.1-0.9,0.6-1.2,0.5c-0.2-0.1,0-0.5-0.2-0.7
		c-0.1-0.1-0.3-0.1-0.4,0C56,8.1,56,8.2,56,8.3c0,0.4,0.2,0.6,0.3,0.9c0.1,0.4,0,0.8-0.1,0.9C56.1,10,56,9.8,55.9,9.5z"/>
</g>
</svg>
